<?xml version="1.0" encoding="utf-8"?>
<svg xmlns="http://www.w3.org/2000/svg" version="1.1" width="842px" height="452px" style="shape-rendering:geometricPrecision; text-rendering:geometricPrecision; image-rendering:optimizeQuality; fill-rule:evenodd; clip-rule:evenodd">
  <g>
    <path style="opacity:1" fill="#fefefe" d="M -0.5,-0.5 C 280.167,-0.5 560.833,-0.5 841.5,-0.5C 841.5,150.167 841.5,300.833 841.5,451.5C 560.833,451.5 280.167,451.5 -0.5,451.5C -0.5,300.833 -0.5,150.167 -0.5,-0.5 Z"/>
  </g>
  <g>
    <path style="opacity:1" fill="#060606" d="M 163.5,16.5 C 172.393,17.9 176.059,23.0667 174.5,32C 167.709,102.153 157.209,171.653 143,240.5C 138.269,260.756 132.602,280.756 126,300.5C 124.262,304.241 121.762,307.408 118.5,310C 116.447,310.325 114.447,309.991 112.5,309C 108.885,305.381 106.051,301.214 104,296.5C 100.732,288.362 98.0653,280.029 96,271.5C 92.4474,247.192 89.114,222.858 86,198.5C 85.3894,172.813 85.8894,147.146 87.5,121.5C 87.3333,114.833 87.1667,108.167 87,101.5C 85.8949,96.3718 84.5616,96.3718 83,101.5C 76.2136,133.184 68.2136,164.517 59,195.5C 49.8365,233.969 41.5032,272.635 34,311.5C 32.5485,314.014 31.3818,316.68 30.5,319.5C 27.2463,320.81 24.7463,319.81 23,316.5C 19.7522,310.548 18.7522,304.215 20,297.5C 22.3718,282.931 25.7051,268.598 30,254.5C 37.4685,213.143 47.4685,172.476 60,132.5C 63.8896,107.712 69.5563,83.3789 77,59.5C 78.6511,56.1978 80.3178,52.8644 82,49.5C 89.7537,43.5239 94.7537,45.5239 97,55.5C 98.4765,60.4057 99.4765,65.4057 100,70.5C 101.032,116.83 102.032,163.163 103,209.5C 105.309,231.328 108.642,252.995 113,274.5C 113.36,276.421 114.194,278.088 115.5,279.5C 116.799,278.91 117.632,277.91 118,276.5C 123.588,257.382 128.254,238.049 132,218.5C 142.321,155.245 151.321,91.9114 159,28.5C 160.235,24.3692 161.735,20.3692 163.5,16.5 Z"/>
  </g>
  <g>
    <path style="opacity:1" fill="#040404" d="M 569.5,32.5 C 574.093,32.5473 577.593,34.5473 580,38.5C 581.534,42.7109 581.867,47.0442 581,51.5C 573.216,86.095 564.55,120.428 555,154.5C 554.192,156.579 554.359,158.579 555.5,160.5C 567.579,145.255 579.079,129.588 590,113.5C 601.427,99.403 613.593,85.903 626.5,73C 629.702,70.3165 633.368,68.4831 637.5,67.5C 642.074,70.8059 644.74,75.3059 645.5,81C 644.722,83.3899 643.555,85.5566 642,87.5C 615.638,113.846 592.304,142.513 572,173.5C 568.556,178.556 566.056,184.056 564.5,190C 572.173,207.724 581.34,224.557 592,240.5C 600.951,258.678 610.284,276.678 620,294.5C 621.405,298.072 621.738,301.739 621,305.5C 617.632,306.83 614.465,306.33 611.5,304C 608.035,301.537 604.869,298.704 602,295.5C 593.521,279.208 584.521,263.208 575,247.5C 567.431,231.358 559.097,215.691 550,200.5C 548.216,197.997 546.549,197.997 545,200.5C 540.56,222.808 536.226,245.141 532,267.5C 530.376,271.746 529.043,276.08 528,280.5C 527,288.5 526,296.5 525,304.5C 524.255,307.545 522.922,310.211 521,312.5C 515.393,309.545 512.06,304.879 511,298.5C 510.333,295.167 510.333,291.833 511,288.5C 519.726,246.535 528.06,204.535 536,162.5C 547.854,121.272 557.854,79.6057 566,37.5C 567.176,35.8043 568.343,34.1376 569.5,32.5 Z"/>
  </g>
  <g>
    <path style="opacity:1" fill="#050505" d="M 364.5,226.5 C 363.371,228.628 363.204,230.961 364,233.5C 364.791,232.255 365.291,230.922 365.5,229.5C 376.288,210.56 389.122,193.227 404,177.5C 408.77,173.355 414.27,171.855 420.5,173C 422.552,173.93 424.052,175.43 425,177.5C 427.071,182.379 428.737,187.379 430,192.5C 429.802,210.85 428.969,229.183 427.5,247.5C 429.527,247.338 431.527,247.505 433.5,248C 436.333,250.167 439.167,252.333 442,254.5C 440.549,262.291 435.882,267.291 428,269.5C 423.905,268.614 420.905,266.281 419,262.5C 414.252,251.529 413.252,240.196 416,228.5C 416.667,218.167 416.667,207.833 416,197.5C 415.439,196.978 414.772,196.645 414,196.5C 404.092,203.072 395.425,211.072 388,220.5C 377.084,235.115 367.75,250.782 360,267.5C 354.049,273.309 349.382,272.309 346,264.5C 345.333,260.5 345.333,256.5 346,252.5C 349.333,232.5 352.667,212.5 356,192.5C 367.832,143.988 378.832,95.3217 389,46.5C 391.667,42.5 394.333,42.5 397,46.5C 400.736,55.9373 401.403,65.604 399,75.5C 396.536,82.3541 394.536,89.3541 393,96.5C 386.3,129.016 378.633,161.349 370,193.5C 368.412,204.538 366.578,215.538 364.5,226.5 Z"/>
  </g>
  <g>
    <path style="opacity:1" fill="#060606" d="M 747.5,142.5 C 750.044,142.104 752.211,142.771 754,144.5C 756.327,147.815 757.493,151.481 757.5,155.5C 752.467,176.507 747.633,197.507 743,218.5C 742.077,226.824 741.243,235.158 740.5,243.5C 740.54,245.429 740.873,247.262 741.5,249C 748.126,248.095 753.626,244.928 758,239.5C 763.424,232.324 768.09,224.657 772,216.5C 775.119,193.789 778.452,171.122 782,148.5C 786.964,145.107 790.631,146.107 793,151.5C 794.478,159.111 794.812,166.778 794,174.5C 790.52,184.945 787.853,195.612 786,206.5C 782.751,237.993 778.418,269.327 773,300.5C 767.957,320.302 760.957,339.302 752,357.5C 746.5,368.333 738.333,376.5 727.5,382C 720.052,386.112 713.386,385.278 707.5,379.5C 706.185,377.684 704.685,376.017 703,374.5C 702.217,370.771 703.717,368.437 707.5,367.5C 710.797,368.496 714.131,368.663 717.5,368C 728.617,361.883 737.451,353.383 744,342.5C 748.92,332.074 753.253,321.407 757,310.5C 761.697,290.35 765.363,270.016 768,249.5C 762.504,255.995 756.671,262.162 750.5,268C 747.107,270.363 743.44,272.196 739.5,273.5C 738.062,273.281 736.729,272.781 735.5,272C 726.786,259.506 723.619,245.672 726,230.5C 731.035,204.323 736.701,178.323 743,152.5C 744.602,149.184 746.102,145.851 747.5,142.5 Z"/>
  </g>
  <g>
    <path style="opacity:1" fill="#040404" d="M 296.5,147.5 C 303.931,146.965 309.431,149.965 313,156.5C 319.742,167.055 322.575,178.555 321.5,191C 319.76,209.8 318.927,228.633 319,247.5C 319.674,248.578 320.674,249.245 322,249.5C 332.144,244.614 336.477,247.947 335,259.5C 332.555,267.775 327.388,273.442 319.5,276.5C 318.062,276.281 316.729,275.781 315.5,275C 312.988,271.142 311.155,266.975 310,262.5C 308.266,253.973 306.099,245.64 303.5,237.5C 295.251,249.663 287.251,261.996 279.5,274.5C 276.978,276.856 274.312,279.023 271.5,281C 268.167,281.667 264.833,281.667 261.5,281C 259.074,277.568 256.24,274.401 253,271.5C 250.463,254.24 251.796,237.24 257,220.5C 263.934,198.629 273.6,177.962 286,158.5C 289.525,154.717 293.025,151.05 296.5,147.5 Z"/>
  </g>
  <g>
    <path style="opacity:1" fill="#040404" d="M 215.5,149.5 C 217.527,149.338 219.527,149.505 221.5,150C 226.99,155.136 231.49,160.97 235,167.5C 238.151,182.477 238.151,197.477 235,212.5C 230.552,231.273 222.886,248.607 212,264.5C 205.099,272.072 197.599,278.905 189.5,285C 182.624,287.931 177.458,286.097 174,279.5C 171.522,275.365 169.522,271.032 168,266.5C 165.181,251.637 165.515,236.97 169,222.5C 173.379,206.249 179.546,190.749 187.5,176C 191.744,169.087 196.744,162.754 202.5,157C 206.602,153.954 210.935,151.454 215.5,149.5 Z"/>
  </g>
  <g>
    <path style="opacity:1" fill="#030303" d="M 670.5,153.5 C 679.102,154.891 685.269,159.557 689,167.5C 691.98,179.336 694.147,191.336 695.5,203.5C 691.052,218.135 688.885,233.135 689,248.5C 689.536,252.451 691.036,255.951 693.5,259C 696.167,259.667 698.833,259.667 701.5,259C 704.984,254.549 708.817,250.382 713,246.5C 713.637,248.303 714.803,249.636 716.5,250.5C 717.655,253.446 717.821,256.446 717,259.5C 714.806,262.554 713.139,265.888 712,269.5C 707.207,277.543 700.373,280.043 691.5,277C 683.569,268.305 678.402,258.138 676,246.5C 668.748,253.516 662.582,261.349 657.5,270C 653.641,271.843 650.307,274.51 647.5,278C 635.375,280.914 628.209,276.081 626,263.5C 625.333,258.833 625.333,254.167 626,249.5C 631.791,218.125 643.458,189.125 661,162.5C 664.145,159.368 667.312,156.368 670.5,153.5 Z"/>
  </g>
  <g>
    <path style="opacity:1" fill="#f8f8f8" d="M 298.5,170.5 C 301.044,170.104 303.211,170.771 305,172.5C 306.654,176.302 308.154,180.136 309.5,184C 303.543,213.583 290.21,239.25 269.5,261C 267.251,261.863 265.418,261.363 264,259.5C 264.514,246.11 267.181,233.11 272,220.5C 277.157,207.182 283.157,194.182 290,181.5C 292.284,177.386 295.117,173.72 298.5,170.5 Z"/>
  </g>
  <g>
    <path style="opacity:1" fill="#fafafa" d="M 212.5,173.5 C 214.857,173.337 217.19,173.503 219.5,174C 220.667,174.5 221.5,175.333 222,176.5C 224.722,210.673 214.556,240.173 191.5,265C 185.961,267.813 182.128,266.313 180,260.5C 179.333,255.167 179.333,249.833 180,244.5C 184.855,224.425 191.855,205.092 201,186.5C 203.984,181.353 207.818,177.02 212.5,173.5 Z"/>
  </g>
  <g>
    <path style="opacity:1" fill="#f7f7f7" d="M 673.5,173.5 C 675.467,173.261 677.301,173.594 679,174.5C 681.295,180.997 681.961,187.664 681,194.5C 674.42,220.316 660.753,241.65 640,258.5C 639.055,258.095 638.388,257.428 638,256.5C 637.333,254.167 637.333,251.833 638,249.5C 644.296,227.295 652.963,205.962 664,185.5C 666.68,181.001 669.847,177.001 673.5,173.5 Z"/>
  </g>
  <g>
    <path style="opacity:1" fill="#949494" d="M 364.5,226.5 C 364.263,227.791 364.596,228.791 365.5,229.5C 365.291,230.922 364.791,232.255 364,233.5C 363.204,230.961 363.371,228.628 364.5,226.5 Z"/>
  </g>
  <g>
    <path style="opacity:1" fill="#121212" d="M 266.5,374.5 C 267.833,374.5 269.167,374.5 270.5,374.5C 270.5,375.833 270.5,377.167 270.5,378.5C 269.167,378.5 267.833,378.5 266.5,378.5C 266.5,377.167 266.5,375.833 266.5,374.5 Z"/>
  </g>
  <g>
    <path style="opacity:1" fill="#181818" d="M 410.5,384.5 C 411.833,384.5 413.167,384.5 414.5,384.5C 414.5,382.5 414.5,380.5 414.5,378.5C 416.355,374.697 419.188,373.697 423,375.5C 423.483,376.448 423.649,377.448 423.5,378.5C 421.833,378.5 420.167,378.5 418.5,378.5C 418.5,380.5 418.5,382.5 418.5,384.5C 420.167,384.5 421.833,384.5 423.5,384.5C 423.5,385.5 423.5,386.5 423.5,387.5C 421.833,387.5 420.167,387.5 418.5,387.5C 418.5,394.833 418.5,402.167 418.5,409.5C 417.167,409.5 415.833,409.5 414.5,409.5C 414.5,402.167 414.5,394.833 414.5,387.5C 413.167,387.5 411.833,387.5 410.5,387.5C 410.5,386.5 410.5,385.5 410.5,384.5 Z"/>
  </g>
  <g>
    <path style="opacity:1" fill="#000000" d="M 206.5,379.5 C 199.5,379.5 192.5,379.5 185.5,379.5C 185.5,383.167 185.5,386.833 185.5,390.5C 191.679,391.167 198.012,391.833 204.5,392.5C 198.346,393.167 192.346,393.833 186.5,394.5C 185.517,398.298 185.183,402.298 185.5,406.5C 192.833,406.5 200.167,406.5 207.5,406.5C 207.5,407.5 207.5,408.5 207.5,409.5C 198.833,409.5 190.167,409.5 181.5,409.5C 181.5,398.5 181.5,387.5 181.5,376.5C 189.833,376.5 198.167,376.5 206.5,376.5C 206.5,377.5 206.5,378.5 206.5,379.5 Z"/>
  </g>
  <g>
    <path style="opacity:1" fill="#0a0a0a" d="M 520.5,376.5 C 522.604,376.201 524.604,376.534 526.5,377.5C 529.835,385.839 533.168,394.172 536.5,402.5C 540.105,394.288 543.438,385.955 546.5,377.5C 548.396,376.534 550.396,376.201 552.5,376.5C 552.5,387.5 552.5,398.5 552.5,409.5C 551.167,409.5 549.833,409.5 548.5,409.5C 548.666,400.494 548.5,391.494 548,382.5C 544.724,391.497 541.557,400.497 538.5,409.5C 537.167,409.5 535.833,409.5 534.5,409.5C 531.443,400.497 528.276,391.497 525,382.5C 524.5,391.494 524.334,400.494 524.5,409.5C 523.167,409.5 521.833,409.5 520.5,409.5C 520.5,398.5 520.5,387.5 520.5,376.5 Z"/>
  </g>
  <g>
    <path style="opacity:1" fill="#1c1c1c" d="M 443.5,378.5 C 443.5,380.5 443.5,382.5 443.5,384.5C 445.167,384.5 446.833,384.5 448.5,384.5C 448.5,385.5 448.5,386.5 448.5,387.5C 447.167,387.5 445.833,387.5 444.5,387.5C 444.5,393.833 444.5,400.167 444.5,406.5C 446.167,406.5 447.833,406.5 449.5,406.5C 449.5,407.5 449.5,408.5 449.5,409.5C 447.143,409.663 444.81,409.497 442.5,409C 441.333,408.5 440.5,407.667 440,406.5C 439.941,399.014 439.107,391.681 437.5,384.5C 438.5,384.5 439.5,384.5 440.5,384.5C 440.031,381.607 441.031,379.607 443.5,378.5 Z"/>
  </g>
  <g>
    <path style="opacity:1" fill="#0a0a0a" d="M 614.5,378.5 C 615.5,378.5 616.5,378.5 617.5,378.5C 617.5,380.5 617.5,382.5 617.5,384.5C 619.167,384.5 620.833,384.5 622.5,384.5C 622.5,385.5 622.5,386.5 622.5,387.5C 620.833,387.5 619.167,387.5 617.5,387.5C 617.334,393.509 617.501,399.509 618,405.5C 619.356,406.38 620.856,406.714 622.5,406.5C 622.5,407.5 622.5,408.5 622.5,409.5C 619.315,409.98 616.481,409.314 614,407.5C 613.5,400.842 613.334,394.175 613.5,387.5C 612.5,387.5 611.5,387.5 610.5,387.5C 610.5,386.5 610.5,385.5 610.5,384.5C 613.779,383.969 615.113,381.969 614.5,378.5 Z"/>
  </g>
  <g>
    <path style="opacity:1" fill="#212121" d="M 221.5,383.5 C 225.954,382.617 229.454,383.95 232,387.5C 233.391,394.746 233.891,402.079 233.5,409.5C 231.833,409.5 230.167,409.5 228.5,409.5C 228.666,402.492 228.5,395.492 228,388.5C 225.599,387.398 223.099,387.231 220.5,388C 219.333,388.5 218.5,389.333 218,390.5C 217.5,396.825 217.334,403.158 217.5,409.5C 215.833,409.5 214.167,409.5 212.5,409.5C 212.5,401.167 212.5,392.833 212.5,384.5C 213.833,384.5 215.167,384.5 216.5,384.5C 216.343,385.873 216.51,387.207 217,388.5C 218.366,386.638 219.866,384.972 221.5,383.5 Z"/>
  </g>
  <g>
    <path style="opacity:1" fill="#111111" d="M 244.5,383.5 C 248.803,382.796 252.303,384.13 255,387.5C 255.483,386.552 255.649,385.552 255.5,384.5C 256.833,384.5 258.167,384.5 259.5,384.5C 259.666,394.172 259.5,403.839 259,413.5C 254.895,419.602 249.395,421.102 242.5,418C 238.468,414.546 238.802,412.879 243.5,413C 247.589,417.712 251.422,417.545 255,412.5C 255.667,410.167 255.667,407.833 255,405.5C 249.878,410.767 244.878,410.767 240,405.5C 238.508,400.589 238.174,395.589 239,390.5C 239.967,387.379 241.8,385.046 244.5,383.5 Z"/>
  </g>
  <g>
    <path style="opacity:1" fill="#030303" d="M 266.5,384.5 C 267.833,384.5 269.167,384.5 270.5,384.5C 270.5,392.833 270.5,401.167 270.5,409.5C 269.167,409.5 267.833,409.5 266.5,409.5C 266.5,401.167 266.5,392.833 266.5,384.5 Z"/>
  </g>
  <g>
    <path style="opacity:1" fill="#212121" d="M 285.5,383.5 C 289.954,382.617 293.454,383.95 296,387.5C 297.391,394.746 297.891,402.079 297.5,409.5C 295.833,409.5 294.167,409.5 292.5,409.5C 292.666,402.492 292.5,395.492 292,388.5C 289.599,387.398 287.099,387.231 284.5,388C 283.333,388.5 282.5,389.333 282,390.5C 281.5,396.825 281.334,403.158 281.5,409.5C 279.833,409.5 278.167,409.5 276.5,409.5C 276.5,401.167 276.5,392.833 276.5,384.5C 277.833,384.5 279.167,384.5 280.5,384.5C 280.343,385.873 280.51,387.207 281,388.5C 282.366,386.638 283.866,384.972 285.5,383.5 Z"/>
  </g>
  <g>
    <path style="opacity:1" fill="#0f0f0f" d="M 309.5,383.5 C 319.698,382.7 324.698,387.367 324.5,397.5C 318.5,397.5 312.5,397.5 306.5,397.5C 306.848,404.685 310.515,407.519 317.5,406C 318.7,404.969 320.034,404.135 321.5,403.5C 322.167,403.833 322.833,404.167 323.5,404.5C 322.631,406.868 320.965,408.368 318.5,409C 311.264,411.299 306.097,409.132 303,402.5C 300.661,394.401 302.827,388.067 309.5,383.5 Z"/>
  </g>
  <g>
    <path style="opacity:1" fill="#0e0e0e" d="M 336.5,383.5 C 346.67,382.671 351.67,387.337 351.5,397.5C 345.5,397.5 339.5,397.5 333.5,397.5C 333.532,405.032 337.199,407.865 344.5,406C 346.081,403.605 348.081,403.105 350.5,404.5C 348.258,408.288 344.925,409.954 340.5,409.5C 336.567,409.949 333.4,408.616 331,405.5C 329.508,400.589 329.174,395.589 330,390.5C 331.694,387.642 333.861,385.309 336.5,383.5 Z"/>
  </g>
  <g>
    <path style="opacity:1" fill="#0c0c0c" d="M 360.5,384.5 C 360.343,385.873 360.51,387.207 361,388.5C 361.949,386.907 363.115,385.574 364.5,384.5C 365.833,384.5 367.167,384.5 368.5,384.5C 368.5,385.5 368.5,386.5 368.5,387.5C 365.192,386.974 363.026,388.307 362,391.5C 361.501,397.491 361.334,403.491 361.5,409.5C 360.167,409.5 358.833,409.5 357.5,409.5C 357.5,401.167 357.5,392.833 357.5,384.5C 358.5,384.5 359.5,384.5 360.5,384.5 Z"/>
  </g>
  <g>
    <path style="opacity:1" fill="#0f0f0f" d="M 392.5,383.5 C 405.319,383.504 410.152,389.838 407,402.5C 403.903,409.132 398.736,411.299 391.5,409C 388.619,407.749 386.786,405.583 386,402.5C 384.909,396.903 385.576,391.57 388,386.5C 389.652,385.601 391.152,384.601 392.5,383.5 Z"/>
  </g>
  <g>
    <path style="opacity:1" fill="#151515" d="M 453.5,374.5 C 454.833,374.5 456.167,374.5 457.5,374.5C 457.334,378.846 457.501,383.179 458,387.5C 463.486,381.92 468.486,382.253 473,388.5C 473.5,395.492 473.666,402.492 473.5,409.5C 472.167,409.5 470.833,409.5 469.5,409.5C 469.666,403.158 469.5,396.825 469,390.5C 468.242,388.09 466.575,387.09 464,387.5C 461.333,387.167 459.333,388.167 458,390.5C 457.5,396.825 457.334,403.158 457.5,409.5C 456.167,409.5 454.833,409.5 453.5,409.5C 453.5,397.833 453.5,386.167 453.5,374.5 Z"/>
  </g>
  <g>
    <path style="opacity:1" fill="#111111" d="M 486.5,383.5 C 496.854,382.52 501.52,387.187 500.5,397.5C 494.833,397.5 489.167,397.5 483.5,397.5C 483.043,404.88 486.376,407.713 493.5,406C 495.217,404.441 497.217,403.608 499.5,403.5C 499.703,405.39 499.037,406.89 497.5,408C 482.96,412.133 476.794,406.633 479,391.5C 480.353,387.65 482.853,384.983 486.5,383.5 Z"/>
  </g>
  <g>
    <path style="opacity:1" fill="#161616" d="M 565.5,383.5 C 577.795,382.629 582.962,388.296 581,400.5C 578.421,408.708 572.921,411.541 564.5,409C 562.185,407.891 560.685,406.057 560,403.5C 556.664,395.234 558.497,388.568 565.5,383.5 Z"/>
  </g>
  <g>
    <path style="opacity:1" fill="#0d0d0d" d="M 595.5,383.5 C 600.439,382.352 603.939,384.019 606,388.5C 606.5,395.492 606.666,402.492 606.5,409.5C 605.167,409.5 603.833,409.5 602.5,409.5C 602.666,402.825 602.5,396.158 602,389.5C 599.503,387.522 596.669,387.022 593.5,388C 592.299,388.903 591.465,390.069 591,391.5C 590.501,397.491 590.334,403.491 590.5,409.5C 589.167,409.5 587.833,409.5 586.5,409.5C 586.5,401.167 586.5,392.833 586.5,384.5C 587.833,384.5 589.167,384.5 590.5,384.5C 590.351,385.552 590.517,386.552 591,387.5C 592.397,385.93 593.897,384.596 595.5,383.5 Z"/>
  </g>
  <g>
    <path style="opacity:1" fill="#0c0c0c" d="M 626.5,374.5 C 627.833,374.5 629.167,374.5 630.5,374.5C 630.334,378.846 630.501,383.179 631,387.5C 636.569,381.826 641.569,382.16 646,388.5C 646.5,395.492 646.666,402.492 646.5,409.5C 645.167,409.5 643.833,409.5 642.5,409.5C 642.666,402.825 642.5,396.158 642,389.5C 639.503,387.522 636.669,387.022 633.5,388C 632.299,388.903 631.465,390.069 631,391.5C 630.501,397.491 630.334,403.491 630.5,409.5C 629.167,409.5 627.833,409.5 626.5,409.5C 626.5,397.833 626.5,386.167 626.5,374.5 Z"/>
  </g>
  <g>
    <path style="opacity:1" fill="#f3f3f3" d="M 245.5,387.5 C 250.352,386.277 253.519,387.944 255,392.5C 256.426,397.757 255.259,402.257 251.5,406C 246.91,407.615 244.077,406.115 243,401.5C 241.806,396.369 242.639,391.702 245.5,387.5 Z"/>
  </g>
  <g>
    <path style="opacity:1" fill="#ececec" d="M 311.5,386.5 C 316.981,386.312 319.981,388.979 320.5,394.5C 315.833,394.5 311.167,394.5 306.5,394.5C 306.667,390.821 308.334,388.154 311.5,386.5 Z"/>
  </g>
  <g>
    <path style="opacity:1" fill="#efefef" d="M 337.5,386.5 C 342.909,385.871 346.243,388.204 347.5,393.5C 342.88,394.493 338.214,394.827 333.5,394.5C 333.776,391.281 335.109,388.615 337.5,386.5 Z"/>
  </g>
  <g>
    <path style="opacity:1" fill="#f1f1f1" d="M 393.5,386.5 C 397.888,385.943 401.055,387.61 403,391.5C 404.472,397.076 403.305,401.909 399.5,406C 394.615,407.718 391.449,406.218 390,401.5C 388.559,395.772 389.726,390.772 393.5,386.5 Z"/>
  </g>
  <g>
    <path style="opacity:1" fill="#f1f1f1" d="M 487.5,386.5 C 493.024,386.358 496.024,389.025 496.5,394.5C 492.167,394.5 487.833,394.5 483.5,394.5C 483.259,390.981 484.593,388.315 487.5,386.5 Z"/>
  </g>
  <g>
    <path style="opacity:1" fill="#f7f7f7" d="M 567.5,386.5 C 571.315,385.829 574.149,387.162 576,390.5C 576.667,394.5 576.667,398.5 576,402.5C 573.947,406.292 570.781,407.458 566.5,406C 565.299,405.097 564.465,403.931 564,402.5C 563.333,398.5 563.333,394.5 564,390.5C 565.102,389.051 566.269,387.718 567.5,386.5 Z"/>
  </g>
</svg>