<?xml version="1.0" encoding="UTF-8" standalone="no"?>
<svg width="495mm" height="495mm" viewBox="-24.75 -24.75 495 495" xmlns="http://www.w3.org/2000/svg">
  <title>NWSS CNC Material and Cut Visualization</title>
  <!-- CNC Bed -->
  <rect x="0" y="0" width="450" height="450" fill="#f0f0f0" stroke="#888888" stroke-width="1" />
  <text x="225" y="45" font-family="Arial" font-size="10" text-anchor="middle">CNC Bed (450 x 450 mm)</text>
  <!-- Material -->
  <rect x="0" y="0" width="200" height="200" fill="#e0e0e0" stroke="#444444" stroke-width="1" />
  <text x="100" y="40" font-family="Arial" font-size="8" text-anchor="middle">Material (200 x 200 mm)</text>
  <!-- Coordinate System -->
  <line x1="0" y1="0" x2="20" y2="0" stroke="red" stroke-width="0.5" />
  <line x1="0" y1="0" x2="0" y2="20" stroke="green" stroke-width="0.5" />
  <text x="22" y="4" font-family="Arial" font-size="6" fill="red">X</text>
  <text x="2" y="22" font-family="Arial" font-size="6" fill="green">Y</text>
  <!-- Cut Paths -->
  <g fill="none" stroke="blue" stroke-width="0.75">
    <polyline points="60,137.5 63,137.5 66,137.5 69,137.5 72,137.5 75,137.5 78,137.5 81,137.5 84,137.5 87,137.5 90,137.5 90,135.5 90,133.5 90,131.5 90,129.5 90,127.5 90,125.5 90,123.5 90,121.5 90,119.5 90,117.5 87,117.5 84,117.5 81,117.5 78,117.5 75,117.5 72,117.5 69,117.5 66,117.5 63,117.5 60,117.5 60,119.5 60,121.5 60,123.5 60,125.5 60,127.5 60,129.5 60,131.5 60,133.5 60,135.5 60,137.5 " />
    <circle cx="60" cy="137.5" r="0.6" fill="green" />
    <circle cx="90" cy="137.5" r="0.6" fill="blue" />
    <circle cx="90" cy="117.5" r="0.6" fill="blue" />
    <circle cx="60" cy="117.5" r="0.6" fill="blue" />
    <circle cx="60" cy="137.5" r="0.6" fill="red" />
    <polyline points="135,127.5 134.804,125.067 134.235,122.759 133.326,120.607 132.106,118.641 130.607,116.893 128.859,115.394 126.893,114.174 124.741,113.265 122.433,112.696 120,112.5 117.567,112.696 115.259,113.265 113.107,114.174 111.141,115.394 109.393,116.893 107.894,118.641 106.674,120.607 105.765,122.759 105.196,125.067 105,127.5 105.196,129.933 105.765,132.241 106.674,134.393 107.894,136.359 109.393,138.107 111.141,139.606 113.107,140.826 115.259,141.735 117.567,142.304 120,142.5 122.433,142.304 124.741,141.735 126.893,140.826 128.859,139.606 130.607,138.107 132.106,136.359 133.326,134.393 134.235,132.241 134.804,129.933 135,127.5 135,127.5 135,127.5 135,127.5 135,127.5 135,127.5 135,127.5 135,127.5 135,127.5 135,127.5 135,127.5 " />
    <circle cx="135" cy="127.5" r="0.6" fill="green" />
    <circle cx="120" cy="112.5" r="0.6" fill="blue" />
    <circle cx="105" cy="127.5" r="0.6" fill="blue" />
    <circle cx="120" cy="142.5" r="0.6" fill="blue" />
    <circle cx="135" cy="127.5" r="0.6" fill="blue" />
    <circle cx="135" cy="127.5" r="0.6" fill="red" />
    <polyline points="60,87.5 68,87.5 76,87.5 84,87.5 92,87.5 100,87.5 108,87.5 116,87.5 124,87.5 132,87.5 140,87.5 " />
    <circle cx="60" cy="87.5" r="0.6" fill="green" />
    <circle cx="140" cy="87.5" r="0.6" fill="red" />
    <polyline points="80,67.5 84,67.5 88,67.5 92,67.5 96,67.5 100,67.5 104,67.5 108,67.5 112,67.5 116,67.5 120,67.5 118,66.5 116,65.5 114,64.5 112,63.5 110,62.5 108,61.5 106,60.5 104,59.5 102,58.5 100,57.5 98,58.5 96,59.5 94,60.5 92,61.5 90,62.5 88,63.5 86,64.5 84,65.5 82,66.5 80,67.5 " />
    <circle cx="80" cy="67.5" r="0.6" fill="green" />
    <circle cx="120" cy="67.5" r="0.6" fill="blue" />
    <circle cx="100" cy="57.5" r="0.6" fill="blue" />
    <circle cx="80" cy="67.5" r="0.6" fill="red" />
    <polyline points="70,107.5 76,111.82 82,113.26 88,112.54 94,110.38 100,107.5 106,104.62 112,102.46 118,101.74 124,103.18 130,107.5 " />
    <circle cx="70" cy="107.5" r="0.6" fill="green" />
    <circle cx="130" cy="107.5" r="0.6" fill="red" />
  </g>
  <!-- Legend -->
  <g transform="translate(346.5, 396)">
    <rect x="0" y="0" width="123.75" height="74.25" fill="white" stroke="black" stroke-width="0.5" />
    <text x="5" y="10" font-family="Arial" font-size="6">Legend:</text>
    <circle cx="7" cy="20" r="0.6" fill="green" />
    <text x="12" y="22" font-family="Arial" font-size="6">Start points</text>
    <circle cx="7" cy="30" r="0.6" fill="red" />
    <text x="12" y="32" font-family="Arial" font-size="6">End points</text>
    <polyline points="5,40 10,40" stroke="blue" stroke-width="0.75" />
    <text x="12" y="42" font-family="Arial" font-size="6">Cut paths</text>
  </g>
</svg>
