<?xml version="1.0" encoding="UTF-8" standalone="no"?>
<!-- Generated by NWSS-CNC Visualization -->
<svg width="85.2941mm" height="90mm" viewBox="21.3529 -5 85.2941 90" xmlns="http://www.w3.org/2000/svg">
  <!-- Background Grid -->
  <pattern id="grid" width="10" height="10" patternUnits="userSpaceOnUse">
    <rect width="10" height="10" fill="#f8f8f8"/>
    <path d="M 10 0 L 0 0 0 10" fill="none" stroke="#e0e0e0" stroke-width="0.5" />
  </pattern>
  <rect x="21.3529" y="-5" width="85.2941" height="90" fill="url(#grid)" />
  <!-- Discretized Paths -->
  <polyline points="26.3529,75.2941 29.1765,75.2941 32,75.2941 34.8235,75.2941 37.6471,75.2941 40.4706,75.2941 43.2941,75.2941 46.1176,75.2941 48.9412,75.2941 51.7647,75.2941 54.5882,75.2941 54.5882,73.4118 54.5882,71.5294 54.5882,69.6471 54.5882,67.7647 54.5882,65.8824 54.5882,64 54.5882,62.1176 54.5882,60.2353 54.5882,58.3529 54.5882,56.4706 51.7647,56.4706 48.9412,56.4706 46.1176,56.4706 43.2941,56.4706 40.4706,56.4706 37.6471,56.4706 34.8235,56.4706 32,56.4706 29.1765,56.4706 26.3529,56.4706 26.3529,58.3529 26.3529,60.2353 26.3529,62.1176 26.3529,64 26.3529,65.8824 26.3529,67.7647 26.3529,69.6471 26.3529,71.5294 26.3529,73.4118 26.3529,75.2941 " fill="none" stroke="hsl(0, 80%, 50%)" stroke-width="1.0" />
  <circle cx="26.3529" cy="75.2941" r="1" fill="green" />
  <circle cx="26.3529" cy="75.2941" r="1" fill="red" />
  <circle cx="29.1765" cy="75.2941" r="0.8" fill="blue" />
  <circle cx="32" cy="75.2941" r="0.8" fill="blue" />
  <circle cx="34.8235" cy="75.2941" r="0.8" fill="blue" />
  <circle cx="37.6471" cy="75.2941" r="0.8" fill="blue" />
  <circle cx="40.4706" cy="75.2941" r="0.8" fill="blue" />
  <circle cx="43.2941" cy="75.2941" r="0.8" fill="blue" />
  <circle cx="46.1176" cy="75.2941" r="0.8" fill="blue" />
  <circle cx="48.9412" cy="75.2941" r="0.8" fill="blue" />
  <circle cx="51.7647" cy="75.2941" r="0.8" fill="blue" />
  <circle cx="54.5882" cy="75.2941" r="0.8" fill="blue" />
  <circle cx="54.5882" cy="73.4118" r="0.8" fill="blue" />
  <circle cx="54.5882" cy="71.5294" r="0.8" fill="blue" />
  <circle cx="54.5882" cy="69.6471" r="0.8" fill="blue" />
  <circle cx="54.5882" cy="67.7647" r="0.8" fill="blue" />
  <circle cx="54.5882" cy="65.8824" r="0.8" fill="blue" />
  <circle cx="54.5882" cy="64" r="0.8" fill="blue" />
  <circle cx="54.5882" cy="62.1176" r="0.8" fill="blue" />
  <circle cx="54.5882" cy="60.2353" r="0.8" fill="blue" />
  <circle cx="54.5882" cy="58.3529" r="0.8" fill="blue" />
  <circle cx="54.5882" cy="56.4706" r="0.8" fill="blue" />
  <circle cx="51.7647" cy="56.4706" r="0.8" fill="blue" />
  <circle cx="48.9412" cy="56.4706" r="0.8" fill="blue" />
  <circle cx="46.1176" cy="56.4706" r="0.8" fill="blue" />
  <circle cx="43.2941" cy="56.4706" r="0.8" fill="blue" />
  <circle cx="40.4706" cy="56.4706" r="0.8" fill="blue" />
  <circle cx="37.6471" cy="56.4706" r="0.8" fill="blue" />
  <circle cx="34.8235" cy="56.4706" r="0.8" fill="blue" />
  <circle cx="32" cy="56.4706" r="0.8" fill="blue" />
  <circle cx="29.1765" cy="56.4706" r="0.8" fill="blue" />
  <circle cx="26.3529" cy="56.4706" r="0.8" fill="blue" />
  <circle cx="26.3529" cy="58.3529" r="0.8" fill="blue" />
  <circle cx="26.3529" cy="60.2353" r="0.8" fill="blue" />
  <circle cx="26.3529" cy="62.1176" r="0.8" fill="blue" />
  <circle cx="26.3529" cy="64" r="0.8" fill="blue" />
  <circle cx="26.3529" cy="65.8824" r="0.8" fill="blue" />
  <circle cx="26.3529" cy="67.7647" r="0.8" fill="blue" />
  <circle cx="26.3529" cy="69.6471" r="0.8" fill="blue" />
  <circle cx="26.3529" cy="71.5294" r="0.8" fill="blue" />
  <circle cx="26.3529" cy="73.4118" r="0.8" fill="blue" />
  <polyline points="96.9412,65.8824 96.7564,63.5924 96.2214,61.4201 95.3654,59.3945 94.2173,57.5447 92.8062,55.8997 91.1612,54.4886 89.3114,53.3405 87.2858,52.4844 85.1135,51.9495 82.8235,51.7647 80.5336,51.9495 78.3613,52.4844 76.3357,53.3405 74.4858,54.4886 72.8408,55.8997 71.4298,57.5447 70.2817,59.3945 69.4256,61.4201 68.8907,63.5924 68.7059,65.8824 68.8907,68.1723 69.4256,70.3446 70.2817,72.3702 71.4298,74.2201 72.8408,75.865 74.4858,77.2761 76.3357,78.4242 78.3613,79.2803 80.5336,79.8152 82.8235,80 85.1135,79.8152 87.2858,79.2803 89.3114,78.4242 91.1612,77.2761 92.8062,75.865 94.2173,74.2201 95.3654,72.3702 96.2214,70.3446 96.7564,68.1723 96.9412,65.8824 96.9412,65.8824 96.9412,65.8824 96.9412,65.8824 96.9412,65.8824 96.9412,65.8824 96.9412,65.8824 96.9412,65.8824 96.9412,65.8824 96.9412,65.8824 96.9412,65.8824 " fill="none" stroke="hsl(60, 80%, 50%)" stroke-width="1.0" />
  <circle cx="96.9412" cy="65.8824" r="1" fill="green" />
  <circle cx="96.9412" cy="65.8824" r="1" fill="red" />
  <circle cx="96.7564" cy="63.5924" r="0.8" fill="blue" />
  <circle cx="96.2214" cy="61.4201" r="0.8" fill="blue" />
  <circle cx="95.3654" cy="59.3945" r="0.8" fill="blue" />
  <circle cx="94.2173" cy="57.5447" r="0.8" fill="blue" />
  <circle cx="92.8062" cy="55.8997" r="0.8" fill="blue" />
  <circle cx="91.1612" cy="54.4886" r="0.8" fill="blue" />
  <circle cx="89.3114" cy="53.3405" r="0.8" fill="blue" />
  <circle cx="87.2858" cy="52.4844" r="0.8" fill="blue" />
  <circle cx="85.1135" cy="51.9495" r="0.8" fill="blue" />
  <circle cx="82.8235" cy="51.7647" r="0.8" fill="blue" />
  <circle cx="80.5336" cy="51.9495" r="0.8" fill="blue" />
  <circle cx="78.3613" cy="52.4844" r="0.8" fill="blue" />
  <circle cx="76.3357" cy="53.3405" r="0.8" fill="blue" />
  <circle cx="74.4858" cy="54.4886" r="0.8" fill="blue" />
  <circle cx="72.8408" cy="55.8997" r="0.8" fill="blue" />
  <circle cx="71.4298" cy="57.5447" r="0.8" fill="blue" />
  <circle cx="70.2817" cy="59.3945" r="0.8" fill="blue" />
  <circle cx="69.4256" cy="61.4201" r="0.8" fill="blue" />
  <circle cx="68.8907" cy="63.5924" r="0.8" fill="blue" />
  <circle cx="68.7059" cy="65.8824" r="0.8" fill="blue" />
  <circle cx="68.8907" cy="68.1723" r="0.8" fill="blue" />
  <circle cx="69.4256" cy="70.3446" r="0.8" fill="blue" />
  <circle cx="70.2817" cy="72.3702" r="0.8" fill="blue" />
  <circle cx="71.4298" cy="74.2201" r="0.8" fill="blue" />
  <circle cx="72.8408" cy="75.865" r="0.8" fill="blue" />
  <circle cx="74.4858" cy="77.2761" r="0.8" fill="blue" />
  <circle cx="76.3357" cy="78.4242" r="0.8" fill="blue" />
  <circle cx="78.3613" cy="79.2803" r="0.8" fill="blue" />
  <circle cx="80.5336" cy="79.8152" r="0.8" fill="blue" />
  <circle cx="82.8235" cy="80" r="0.8" fill="blue" />
  <circle cx="85.1135" cy="79.8152" r="0.8" fill="blue" />
  <circle cx="87.2858" cy="79.2803" r="0.8" fill="blue" />
  <circle cx="89.3114" cy="78.4242" r="0.8" fill="blue" />
  <circle cx="91.1612" cy="77.2761" r="0.8" fill="blue" />
  <circle cx="92.8062" cy="75.865" r="0.8" fill="blue" />
  <circle cx="94.2173" cy="74.2201" r="0.8" fill="blue" />
  <circle cx="95.3654" cy="72.3702" r="0.8" fill="blue" />
  <circle cx="96.2214" cy="70.3446" r="0.8" fill="blue" />
  <circle cx="96.7564" cy="68.1723" r="0.8" fill="blue" />
  <circle cx="96.9412" cy="65.8824" r="0.8" fill="blue" />
  <circle cx="96.9412" cy="65.8824" r="0.8" fill="blue" />
  <circle cx="96.9412" cy="65.8824" r="0.8" fill="blue" />
  <circle cx="96.9412" cy="65.8824" r="0.8" fill="blue" />
  <circle cx="96.9412" cy="65.8824" r="0.8" fill="blue" />
  <circle cx="96.9412" cy="65.8824" r="0.8" fill="blue" />
  <circle cx="96.9412" cy="65.8824" r="0.8" fill="blue" />
  <circle cx="96.9412" cy="65.8824" r="0.8" fill="blue" />
  <circle cx="96.9412" cy="65.8824" r="0.8" fill="blue" />
  <circle cx="96.9412" cy="65.8824" r="0.8" fill="blue" />
  <polyline points="26.3529,28.2353 33.8824,28.2353 41.4118,28.2353 48.9412,28.2353 56.4706,28.2353 64,28.2353 71.5294,28.2353 79.0588,28.2353 86.5882,28.2353 94.1176,28.2353 101.647,28.2353 " fill="none" stroke="hsl(120, 80%, 50%)" stroke-width="1.0" />
  <circle cx="26.3529" cy="28.2353" r="1" fill="green" />
  <circle cx="101.647" cy="28.2353" r="1" fill="red" />
  <circle cx="33.8824" cy="28.2353" r="0.8" fill="blue" />
  <circle cx="41.4118" cy="28.2353" r="0.8" fill="blue" />
  <circle cx="48.9412" cy="28.2353" r="0.8" fill="blue" />
  <circle cx="56.4706" cy="28.2353" r="0.8" fill="blue" />
  <circle cx="64" cy="28.2353" r="0.8" fill="blue" />
  <circle cx="71.5294" cy="28.2353" r="0.8" fill="blue" />
  <circle cx="79.0588" cy="28.2353" r="0.8" fill="blue" />
  <circle cx="86.5882" cy="28.2353" r="0.8" fill="blue" />
  <circle cx="94.1176" cy="28.2353" r="0.8" fill="blue" />
  <polyline points="45.1765,9.41176 48.9412,9.41176 52.7059,9.41176 56.4706,9.41176 60.2353,9.41176 64,9.41176 67.7647,9.41176 71.5294,9.41176 75.2941,9.41176 79.0588,9.41176 82.8235,9.41176 80.9412,8.4706 79.0588,7.5294 77.1765,6.58824 75.2941,5.64705 73.4118,4.70588 71.5294,3.76471 69.6471,2.82353 67.7647,1.88235 65.8824,0.941176 64,0 62.1176,0.941184 60.2353,1.88235 58.3529,2.82353 56.4706,3.7647 54.5882,4.70588 52.7059,5.64707 50.8235,6.58824 48.9412,7.52941 47.0588,8.47059 45.1765,9.41176 " fill="none" stroke="hsl(180, 80%, 50%)" stroke-width="1.0" />
  <circle cx="45.1765" cy="9.41176" r="1" fill="green" />
  <circle cx="45.1765" cy="9.41176" r="1" fill="red" />
  <circle cx="48.9412" cy="9.41176" r="0.8" fill="blue" />
  <circle cx="52.7059" cy="9.41176" r="0.8" fill="blue" />
  <circle cx="56.4706" cy="9.41176" r="0.8" fill="blue" />
  <circle cx="60.2353" cy="9.41176" r="0.8" fill="blue" />
  <circle cx="64" cy="9.41176" r="0.8" fill="blue" />
  <circle cx="67.7647" cy="9.41176" r="0.8" fill="blue" />
  <circle cx="71.5294" cy="9.41176" r="0.8" fill="blue" />
  <circle cx="75.2941" cy="9.41176" r="0.8" fill="blue" />
  <circle cx="79.0588" cy="9.41176" r="0.8" fill="blue" />
  <circle cx="82.8235" cy="9.41176" r="0.8" fill="blue" />
  <circle cx="80.9412" cy="8.4706" r="0.8" fill="blue" />
  <circle cx="79.0588" cy="7.5294" r="0.8" fill="blue" />
  <circle cx="77.1765" cy="6.58824" r="0.8" fill="blue" />
  <circle cx="75.2941" cy="5.64705" r="0.8" fill="blue" />
  <circle cx="73.4118" cy="4.70588" r="0.8" fill="blue" />
  <circle cx="71.5294" cy="3.76471" r="0.8" fill="blue" />
  <circle cx="69.6471" cy="2.82353" r="0.8" fill="blue" />
  <circle cx="67.7647" cy="1.88235" r="0.8" fill="blue" />
  <circle cx="65.8824" cy="0.941176" r="0.8" fill="blue" />
  <circle cx="64" cy="0" r="0.8" fill="blue" />
  <circle cx="62.1176" cy="0.941184" r="0.8" fill="blue" />
  <circle cx="60.2353" cy="1.88235" r="0.8" fill="blue" />
  <circle cx="58.3529" cy="2.82353" r="0.8" fill="blue" />
  <circle cx="56.4706" cy="3.7647" r="0.8" fill="blue" />
  <circle cx="54.5882" cy="4.70588" r="0.8" fill="blue" />
  <circle cx="52.7059" cy="5.64707" r="0.8" fill="blue" />
  <circle cx="50.8235" cy="6.58824" r="0.8" fill="blue" />
  <circle cx="48.9412" cy="7.52941" r="0.8" fill="blue" />
  <circle cx="47.0588" cy="8.47059" r="0.8" fill="blue" />
  <polyline points="35.7647,47.0588 41.4118,51.1247 47.0588,52.48 52.7059,51.8024 58.3529,49.7694 64,47.0588 69.6471,44.3482 75.2941,42.3153 80.9412,41.6376 86.5882,42.9929 92.2353,47.0588 " fill="none" stroke="hsl(240, 80%, 50%)" stroke-width="1.0" />
  <circle cx="35.7647" cy="47.0588" r="1" fill="green" />
  <circle cx="92.2353" cy="47.0588" r="1" fill="red" />
  <circle cx="41.4118" cy="51.1247" r="0.8" fill="blue" />
  <circle cx="47.0588" cy="52.48" r="0.8" fill="blue" />
  <circle cx="52.7059" cy="51.8024" r="0.8" fill="blue" />
  <circle cx="58.3529" cy="49.7694" r="0.8" fill="blue" />
  <circle cx="64" cy="47.0588" r="0.8" fill="blue" />
  <circle cx="69.6471" cy="44.3482" r="0.8" fill="blue" />
  <circle cx="75.2941" cy="42.3153" r="0.8" fill="blue" />
  <circle cx="80.9412" cy="41.6376" r="0.8" fill="blue" />
  <circle cx="86.5882" cy="42.9929" r="0.8" fill="blue" />
</svg>
