<?xml version="1.0" encoding="UTF-8" standalone="no"?>
<svg width="377.953mm" height="377.953mm" viewBox="0 0 377.953 377.953" xmlns="http://www.w3.org/2000/svg">
  <!-- Original shapes with 50% opacity -->
  <g opacity="0.5">
    <path d="M10,10 C20,10 30,10 40,10 C40,16.6667 40,23.3333 40,30 C30,30 20,30 10,30 C10,23.3333 10,16.6667 10,10 " fill="#ff" stroke="#0" stroke-width="1" />
    <path d="M85,20 C85,28.2843 78.2843,35 70,35 C61.7157,35 55,28.2843 55,20 C55,11.7157 61.7157,5 70,5 C78.2843,5 85,11.7157 85,20 C85,20 85,20 85,20 " fill="#ff00" stroke="#0" stroke-width="1" />
    <path d="M10,60 C36.6667,60 63.3333,60 90,60 " fill="#0" stroke="#ff0000" stroke-width="2" />
    <path d="M30,80 C43.3333,80 56.6667,80 70,80 C63.3333,83.3333 56.6667,86.6667 50,90 C43.3333,86.6667 36.6667,83.3333 30,80 " fill="#ffff" stroke="#0" stroke-width="1" />
    <path d="M20,40 C40,20 60,60 80,40 " fill="#0" stroke="#800080" stroke-width="2" />
  </g>
  <!-- Discretized points -->
  <polyline points="60,137.5 63,137.5 66,137.5 69,137.5 72,137.5 75,137.5 78,137.5 81,137.5 84,137.5 87,137.5 90,137.5 90,135.5 90,133.5 90,131.5 90,129.5 90,127.5 90,125.5 90,123.5 90,121.5 90,119.5 90,117.5 87,117.5 84,117.5 81,117.5 78,117.5 75,117.5 72,117.5 69,117.5 66,117.5 63,117.5 60,117.5 60,119.5 60,121.5 60,123.5 60,125.5 60,127.5 60,129.5 60,131.5 60,133.5 60,135.5 60,137.5 " fill="none" stroke="red" stroke-width="0.5" />
  <circle cx="60" cy="137.5" r="0.5" fill="blue" />
  <circle cx="63" cy="137.5" r="0.5" fill="blue" />
  <circle cx="66" cy="137.5" r="0.5" fill="blue" />
  <circle cx="69" cy="137.5" r="0.5" fill="blue" />
  <circle cx="72" cy="137.5" r="0.5" fill="blue" />
  <circle cx="75" cy="137.5" r="0.5" fill="blue" />
  <circle cx="78" cy="137.5" r="0.5" fill="blue" />
  <circle cx="81" cy="137.5" r="0.5" fill="blue" />
  <circle cx="84" cy="137.5" r="0.5" fill="blue" />
  <circle cx="87" cy="137.5" r="0.5" fill="blue" />
  <circle cx="90" cy="137.5" r="0.5" fill="blue" />
  <circle cx="90" cy="135.5" r="0.5" fill="blue" />
  <circle cx="90" cy="133.5" r="0.5" fill="blue" />
  <circle cx="90" cy="131.5" r="0.5" fill="blue" />
  <circle cx="90" cy="129.5" r="0.5" fill="blue" />
  <circle cx="90" cy="127.5" r="0.5" fill="blue" />
  <circle cx="90" cy="125.5" r="0.5" fill="blue" />
  <circle cx="90" cy="123.5" r="0.5" fill="blue" />
  <circle cx="90" cy="121.5" r="0.5" fill="blue" />
  <circle cx="90" cy="119.5" r="0.5" fill="blue" />
  <circle cx="90" cy="117.5" r="0.5" fill="blue" />
  <circle cx="87" cy="117.5" r="0.5" fill="blue" />
  <circle cx="84" cy="117.5" r="0.5" fill="blue" />
  <circle cx="81" cy="117.5" r="0.5" fill="blue" />
  <circle cx="78" cy="117.5" r="0.5" fill="blue" />
  <circle cx="75" cy="117.5" r="0.5" fill="blue" />
  <circle cx="72" cy="117.5" r="0.5" fill="blue" />
  <circle cx="69" cy="117.5" r="0.5" fill="blue" />
  <circle cx="66" cy="117.5" r="0.5" fill="blue" />
  <circle cx="63" cy="117.5" r="0.5" fill="blue" />
  <circle cx="60" cy="117.5" r="0.5" fill="blue" />
  <circle cx="60" cy="119.5" r="0.5" fill="blue" />
  <circle cx="60" cy="121.5" r="0.5" fill="blue" />
  <circle cx="60" cy="123.5" r="0.5" fill="blue" />
  <circle cx="60" cy="125.5" r="0.5" fill="blue" />
  <circle cx="60" cy="127.5" r="0.5" fill="blue" />
  <circle cx="60" cy="129.5" r="0.5" fill="blue" />
  <circle cx="60" cy="131.5" r="0.5" fill="blue" />
  <circle cx="60" cy="133.5" r="0.5" fill="blue" />
  <circle cx="60" cy="135.5" r="0.5" fill="blue" />
  <circle cx="60" cy="137.5" r="0.5" fill="blue" />
  <polyline points="135,127.5 134.804,125.067 134.235,122.759 133.326,120.607 132.106,118.641 130.607,116.893 128.859,115.394 126.893,114.174 124.741,113.265 122.433,112.696 120,112.5 117.567,112.696 115.259,113.265 113.107,114.174 111.141,115.394 109.393,116.893 107.894,118.641 106.674,120.607 105.765,122.759 105.196,125.067 105,127.5 105.196,129.933 105.765,132.241 106.674,134.393 107.894,136.359 109.393,138.107 111.141,139.606 113.107,140.826 115.259,141.735 117.567,142.304 120,142.5 122.433,142.304 124.741,141.735 126.893,140.826 128.859,139.606 130.607,138.107 132.106,136.359 133.326,134.393 134.235,132.241 134.804,129.933 135,127.5 135,127.5 135,127.5 135,127.5 135,127.5 135,127.5 135,127.5 135,127.5 135,127.5 135,127.5 135,127.5 " fill="none" stroke="red" stroke-width="0.5" />
  <circle cx="135" cy="127.5" r="0.5" fill="blue" />
  <circle cx="134.804" cy="125.067" r="0.5" fill="blue" />
  <circle cx="134.235" cy="122.759" r="0.5" fill="blue" />
  <circle cx="133.326" cy="120.607" r="0.5" fill="blue" />
  <circle cx="132.106" cy="118.641" r="0.5" fill="blue" />
  <circle cx="130.607" cy="116.893" r="0.5" fill="blue" />
  <circle cx="128.859" cy="115.394" r="0.5" fill="blue" />
  <circle cx="126.893" cy="114.174" r="0.5" fill="blue" />
  <circle cx="124.741" cy="113.265" r="0.5" fill="blue" />
  <circle cx="122.433" cy="112.696" r="0.5" fill="blue" />
  <circle cx="120" cy="112.5" r="0.5" fill="blue" />
  <circle cx="117.567" cy="112.696" r="0.5" fill="blue" />
  <circle cx="115.259" cy="113.265" r="0.5" fill="blue" />
  <circle cx="113.107" cy="114.174" r="0.5" fill="blue" />
  <circle cx="111.141" cy="115.394" r="0.5" fill="blue" />
  <circle cx="109.393" cy="116.893" r="0.5" fill="blue" />
  <circle cx="107.894" cy="118.641" r="0.5" fill="blue" />
  <circle cx="106.674" cy="120.607" r="0.5" fill="blue" />
  <circle cx="105.765" cy="122.759" r="0.5" fill="blue" />
  <circle cx="105.196" cy="125.067" r="0.5" fill="blue" />
  <circle cx="105" cy="127.5" r="0.5" fill="blue" />
  <circle cx="105.196" cy="129.933" r="0.5" fill="blue" />
  <circle cx="105.765" cy="132.241" r="0.5" fill="blue" />
  <circle cx="106.674" cy="134.393" r="0.5" fill="blue" />
  <circle cx="107.894" cy="136.359" r="0.5" fill="blue" />
  <circle cx="109.393" cy="138.107" r="0.5" fill="blue" />
  <circle cx="111.141" cy="139.606" r="0.5" fill="blue" />
  <circle cx="113.107" cy="140.826" r="0.5" fill="blue" />
  <circle cx="115.259" cy="141.735" r="0.5" fill="blue" />
  <circle cx="117.567" cy="142.304" r="0.5" fill="blue" />
  <circle cx="120" cy="142.5" r="0.5" fill="blue" />
  <circle cx="122.433" cy="142.304" r="0.5" fill="blue" />
  <circle cx="124.741" cy="141.735" r="0.5" fill="blue" />
  <circle cx="126.893" cy="140.826" r="0.5" fill="blue" />
  <circle cx="128.859" cy="139.606" r="0.5" fill="blue" />
  <circle cx="130.607" cy="138.107" r="0.5" fill="blue" />
  <circle cx="132.106" cy="136.359" r="0.5" fill="blue" />
  <circle cx="133.326" cy="134.393" r="0.5" fill="blue" />
  <circle cx="134.235" cy="132.241" r="0.5" fill="blue" />
  <circle cx="134.804" cy="129.933" r="0.5" fill="blue" />
  <circle cx="135" cy="127.5" r="0.5" fill="blue" />
  <circle cx="135" cy="127.5" r="0.5" fill="blue" />
  <circle cx="135" cy="127.5" r="0.5" fill="blue" />
  <circle cx="135" cy="127.5" r="0.5" fill="blue" />
  <circle cx="135" cy="127.5" r="0.5" fill="blue" />
  <circle cx="135" cy="127.5" r="0.5" fill="blue" />
  <circle cx="135" cy="127.5" r="0.5" fill="blue" />
  <circle cx="135" cy="127.5" r="0.5" fill="blue" />
  <circle cx="135" cy="127.5" r="0.5" fill="blue" />
  <circle cx="135" cy="127.5" r="0.5" fill="blue" />
  <circle cx="135" cy="127.5" r="0.5" fill="blue" />
  <polyline points="60,87.5 68,87.5 76,87.5 84,87.5 92,87.5 100,87.5 108,87.5 116,87.5 124,87.5 132,87.5 140,87.5 " fill="none" stroke="red" stroke-width="0.5" />
  <circle cx="60" cy="87.5" r="0.5" fill="blue" />
  <circle cx="68" cy="87.5" r="0.5" fill="blue" />
  <circle cx="76" cy="87.5" r="0.5" fill="blue" />
  <circle cx="84" cy="87.5" r="0.5" fill="blue" />
  <circle cx="92" cy="87.5" r="0.5" fill="blue" />
  <circle cx="100" cy="87.5" r="0.5" fill="blue" />
  <circle cx="108" cy="87.5" r="0.5" fill="blue" />
  <circle cx="116" cy="87.5" r="0.5" fill="blue" />
  <circle cx="124" cy="87.5" r="0.5" fill="blue" />
  <circle cx="132" cy="87.5" r="0.5" fill="blue" />
  <circle cx="140" cy="87.5" r="0.5" fill="blue" />
  <polyline points="80,67.5 84,67.5 88,67.5 92,67.5 96,67.5 100,67.5 104,67.5 108,67.5 112,67.5 116,67.5 120,67.5 118,66.5 116,65.5 114,64.5 112,63.5 110,62.5 108,61.5 106,60.5 104,59.5 102,58.5 100,57.5 98,58.5 96,59.5 94,60.5 92,61.5 90,62.5 88,63.5 86,64.5 84,65.5 82,66.5 80,67.5 " fill="none" stroke="red" stroke-width="0.5" />
  <circle cx="80" cy="67.5" r="0.5" fill="blue" />
  <circle cx="84" cy="67.5" r="0.5" fill="blue" />
  <circle cx="88" cy="67.5" r="0.5" fill="blue" />
  <circle cx="92" cy="67.5" r="0.5" fill="blue" />
  <circle cx="96" cy="67.5" r="0.5" fill="blue" />
  <circle cx="100" cy="67.5" r="0.5" fill="blue" />
  <circle cx="104" cy="67.5" r="0.5" fill="blue" />
  <circle cx="108" cy="67.5" r="0.5" fill="blue" />
  <circle cx="112" cy="67.5" r="0.5" fill="blue" />
  <circle cx="116" cy="67.5" r="0.5" fill="blue" />
  <circle cx="120" cy="67.5" r="0.5" fill="blue" />
  <circle cx="118" cy="66.5" r="0.5" fill="blue" />
  <circle cx="116" cy="65.5" r="0.5" fill="blue" />
  <circle cx="114" cy="64.5" r="0.5" fill="blue" />
  <circle cx="112" cy="63.5" r="0.5" fill="blue" />
  <circle cx="110" cy="62.5" r="0.5" fill="blue" />
  <circle cx="108" cy="61.5" r="0.5" fill="blue" />
  <circle cx="106" cy="60.5" r="0.5" fill="blue" />
  <circle cx="104" cy="59.5" r="0.5" fill="blue" />
  <circle cx="102" cy="58.5" r="0.5" fill="blue" />
  <circle cx="100" cy="57.5" r="0.5" fill="blue" />
  <circle cx="98" cy="58.5" r="0.5" fill="blue" />
  <circle cx="96" cy="59.5" r="0.5" fill="blue" />
  <circle cx="94" cy="60.5" r="0.5" fill="blue" />
  <circle cx="92" cy="61.5" r="0.5" fill="blue" />
  <circle cx="90" cy="62.5" r="0.5" fill="blue" />
  <circle cx="88" cy="63.5" r="0.5" fill="blue" />
  <circle cx="86" cy="64.5" r="0.5" fill="blue" />
  <circle cx="84" cy="65.5" r="0.5" fill="blue" />
  <circle cx="82" cy="66.5" r="0.5" fill="blue" />
  <circle cx="80" cy="67.5" r="0.5" fill="blue" />
  <polyline points="70,107.5 76,111.82 82,113.26 88,112.54 94,110.38 100,107.5 106,104.62 112,102.46 118,101.74 124,103.18 130,107.5 " fill="none" stroke="red" stroke-width="0.5" />
  <circle cx="70" cy="107.5" r="0.5" fill="blue" />
  <circle cx="76" cy="111.82" r="0.5" fill="blue" />
  <circle cx="82" cy="113.26" r="0.5" fill="blue" />
  <circle cx="88" cy="112.54" r="0.5" fill="blue" />
  <circle cx="94" cy="110.38" r="0.5" fill="blue" />
  <circle cx="100" cy="107.5" r="0.5" fill="blue" />
  <circle cx="106" cy="104.62" r="0.5" fill="blue" />
  <circle cx="112" cy="102.46" r="0.5" fill="blue" />
  <circle cx="118" cy="101.74" r="0.5" fill="blue" />
  <circle cx="124" cy="103.18" r="0.5" fill="blue" />
  <circle cx="130" cy="107.5" r="0.5" fill="blue" />
</svg>
